<mxfile host="app.diagrams.net" agent="Mozilla/5.0 (Windows NT 10.0; Win64; x64) AppleWebKit/537.36 (KHTML, like Gecko) Chrome/136.0.0.0 Safari/537.36 Edg/136.0.0.0" version="26.2.14">
  <diagram name="第 1 页" id="oE-M9JWgYcwelBZmZtFS">
    <mxGraphModel dx="1405" dy="773" grid="1" gridSize="10" guides="1" tooltips="1" connect="1" arrows="1" fold="1" page="1" pageScale="1" pageWidth="827" pageHeight="1169" math="0" shadow="0">
      <root>
        <mxCell id="0" />
        <mxCell id="1" parent="0" />
        <mxCell id="q3shwo7saeF0Dxf-9kR7-1" value="" style="rounded=0;whiteSpace=wrap;html=1;fillColor=#FFF4C3;" vertex="1" parent="1">
          <mxGeometry x="140" y="140" width="960" height="590" as="geometry" />
        </mxCell>
        <mxCell id="q3shwo7saeF0Dxf-9kR7-2" value="&lt;font style=&quot;font-size: 36px;&quot;&gt;&lt;b style=&quot;&quot;&gt;&lt;span style=&quot;font-family: Arial; color: rgb(47, 47, 47);&quot;&gt;Backend &lt;/span&gt;&lt;span style=&quot;font-family: Arial; color: rgb(47, 47, 47);&quot;&gt;A&lt;/span&gt;&lt;span style=&quot;font-family: Arial; color: rgb(47, 47, 47);&quot;&gt;r&lt;/span&gt;&lt;span style=&quot;font-family: Arial; color: rgb(47, 47, 47);&quot;&gt;chitecture &lt;/span&gt;&lt;span style=&quot;font-family: Arial;&quot;&gt;D&lt;/span&gt;&lt;span style=&quot;font-family: Arial;&quot;&gt;esign&lt;/span&gt;&lt;/b&gt;&lt;/font&gt;" style="text;html=1;align=center;verticalAlign=middle;resizable=0;points=[];autosize=1;strokeColor=none;fillColor=none;" vertex="1" parent="1">
          <mxGeometry x="360" y="160" width="520" height="60" as="geometry" />
        </mxCell>
        <mxCell id="q3shwo7saeF0Dxf-9kR7-3" value="&lt;font style=&quot;font-size: 24px;&quot;&gt;&lt;b&gt;User Service&lt;/b&gt;&lt;/font&gt;" style="rounded=0;whiteSpace=wrap;html=1;fillColor=#F8CECC;" vertex="1" parent="1">
          <mxGeometry x="198" y="240" width="216" height="100" as="geometry" />
        </mxCell>
        <mxCell id="q3shwo7saeF0Dxf-9kR7-4" value="&lt;font style=&quot;font-size: 24px;&quot;&gt;&lt;b&gt;Question Service&lt;/b&gt;&lt;/font&gt;" style="rounded=0;whiteSpace=wrap;html=1;fillColor=#F8CECC;" vertex="1" parent="1">
          <mxGeometry x="512.5" y="240" width="217.5" height="100" as="geometry" />
        </mxCell>
        <mxCell id="q3shwo7saeF0Dxf-9kR7-21" style="edgeStyle=orthogonalEdgeStyle;rounded=0;orthogonalLoop=1;jettySize=auto;html=1;" edge="1" parent="1" source="q3shwo7saeF0Dxf-9kR7-7" target="q3shwo7saeF0Dxf-9kR7-4">
          <mxGeometry relative="1" as="geometry" />
        </mxCell>
        <mxCell id="q3shwo7saeF0Dxf-9kR7-25" style="edgeStyle=orthogonalEdgeStyle;rounded=0;orthogonalLoop=1;jettySize=auto;html=1;entryX=1;entryY=0.5;entryDx=0;entryDy=0;" edge="1" parent="1" source="q3shwo7saeF0Dxf-9kR7-7" target="q3shwo7saeF0Dxf-9kR7-9">
          <mxGeometry relative="1" as="geometry">
            <Array as="points">
              <mxPoint x="1064" y="290" />
              <mxPoint x="1064" y="560" />
            </Array>
          </mxGeometry>
        </mxCell>
        <mxCell id="q3shwo7saeF0Dxf-9kR7-7" value="&lt;b&gt;&lt;font style=&quot;font-size: 24px;&quot;&gt;&amp;nbsp;Judgment Service&lt;/font&gt;&lt;/b&gt;" style="rounded=0;whiteSpace=wrap;html=1;fillColor=#F8CECC;" vertex="1" parent="1">
          <mxGeometry x="827" y="240" width="217" height="100" as="geometry" />
        </mxCell>
        <mxCell id="q3shwo7saeF0Dxf-9kR7-9" value="&lt;span style=&quot;font-size: 24px;&quot;&gt;&lt;b&gt;Code Sandbox&lt;/b&gt;&lt;/span&gt;" style="rounded=0;whiteSpace=wrap;html=1;fillColor=#F8CECC;" vertex="1" parent="1">
          <mxGeometry x="827" y="510" width="217" height="100" as="geometry" />
        </mxCell>
        <mxCell id="q3shwo7saeF0Dxf-9kR7-10" value="&lt;span style=&quot;font-size: 24px;&quot;&gt;&lt;b&gt;Common Module&lt;/b&gt;&lt;/span&gt;&lt;div&gt;&lt;span style=&quot;font-size: 24px;&quot;&gt;&lt;b&gt;(All need)&lt;/b&gt;&lt;/span&gt;&lt;/div&gt;" style="rounded=0;whiteSpace=wrap;html=1;fillColor=#F8CECC;" vertex="1" parent="1">
          <mxGeometry x="197" y="510" width="217" height="100" as="geometry" />
        </mxCell>
        <mxCell id="q3shwo7saeF0Dxf-9kR7-15" style="edgeStyle=orthogonalEdgeStyle;rounded=0;orthogonalLoop=1;jettySize=auto;html=1;entryX=0.5;entryY=1;entryDx=0;entryDy=0;" edge="1" parent="1" source="q3shwo7saeF0Dxf-9kR7-11" target="q3shwo7saeF0Dxf-9kR7-4">
          <mxGeometry relative="1" as="geometry" />
        </mxCell>
        <mxCell id="q3shwo7saeF0Dxf-9kR7-16" style="edgeStyle=orthogonalEdgeStyle;rounded=0;orthogonalLoop=1;jettySize=auto;html=1;" edge="1" parent="1" source="q3shwo7saeF0Dxf-9kR7-11" target="q3shwo7saeF0Dxf-9kR7-10">
          <mxGeometry relative="1" as="geometry" />
        </mxCell>
        <mxCell id="q3shwo7saeF0Dxf-9kR7-17" style="edgeStyle=orthogonalEdgeStyle;rounded=0;orthogonalLoop=1;jettySize=auto;html=1;" edge="1" parent="1" source="q3shwo7saeF0Dxf-9kR7-11" target="q3shwo7saeF0Dxf-9kR7-9">
          <mxGeometry relative="1" as="geometry" />
        </mxCell>
        <mxCell id="q3shwo7saeF0Dxf-9kR7-26" style="edgeStyle=orthogonalEdgeStyle;rounded=0;orthogonalLoop=1;jettySize=auto;html=1;entryX=0.5;entryY=1;entryDx=0;entryDy=0;" edge="1" parent="1" source="q3shwo7saeF0Dxf-9kR7-11" target="q3shwo7saeF0Dxf-9kR7-7">
          <mxGeometry relative="1" as="geometry">
            <Array as="points">
              <mxPoint x="622" y="430" />
              <mxPoint x="936" y="430" />
            </Array>
          </mxGeometry>
        </mxCell>
        <mxCell id="q3shwo7saeF0Dxf-9kR7-11" value="&lt;b&gt;&lt;font style=&quot;font-size: 24px;&quot;&gt;Gateway Service&lt;/font&gt;&lt;/b&gt;" style="rounded=0;whiteSpace=wrap;html=1;fillColor=#F8CECC;" vertex="1" parent="1">
          <mxGeometry x="513" y="510" width="217" height="100" as="geometry" />
        </mxCell>
        <mxCell id="q3shwo7saeF0Dxf-9kR7-13" style="edgeStyle=orthogonalEdgeStyle;rounded=0;orthogonalLoop=1;jettySize=auto;html=1;" edge="1" parent="1" source="q3shwo7saeF0Dxf-9kR7-12" target="q3shwo7saeF0Dxf-9kR7-11">
          <mxGeometry relative="1" as="geometry" />
        </mxCell>
        <mxCell id="q3shwo7saeF0Dxf-9kR7-12" value="&lt;b&gt;&lt;font style=&quot;font-size: 18px;&quot;&gt;Front-end Request&lt;/font&gt;&lt;/b&gt;" style="ellipse;whiteSpace=wrap;html=1;fillColor=#D5E8D4;" vertex="1" parent="1">
          <mxGeometry x="524.5" y="640" width="194" height="80" as="geometry" />
        </mxCell>
        <mxCell id="q3shwo7saeF0Dxf-9kR7-20" style="edgeStyle=orthogonalEdgeStyle;rounded=0;orthogonalLoop=1;jettySize=auto;html=1;entryX=0.458;entryY=0.983;entryDx=0;entryDy=0;entryPerimeter=0;" edge="1" parent="1" source="q3shwo7saeF0Dxf-9kR7-11" target="q3shwo7saeF0Dxf-9kR7-3">
          <mxGeometry relative="1" as="geometry">
            <Array as="points">
              <mxPoint x="622" y="430" />
              <mxPoint x="297" y="430" />
            </Array>
          </mxGeometry>
        </mxCell>
        <mxCell id="q3shwo7saeF0Dxf-9kR7-24" value="&lt;b&gt;Get subject information and test cases&lt;/b&gt;" style="text;html=1;align=center;verticalAlign=middle;whiteSpace=wrap;rounded=0;" vertex="1" parent="1">
          <mxGeometry x="670" y="250" width="230" height="30" as="geometry" />
        </mxCell>
        <mxCell id="q3shwo7saeF0Dxf-9kR7-27" value="&lt;b&gt;Compile and execute the code and compare the results&lt;/b&gt;" style="text;html=1;align=left;verticalAlign=middle;whiteSpace=wrap;rounded=0;" vertex="1" parent="1">
          <mxGeometry x="930" y="460" width="130" height="30" as="geometry" />
        </mxCell>
      </root>
    </mxGraphModel>
  </diagram>
</mxfile>
